<svg width="32" height="32" viewBox="0 0 32 32" fill="none" xmlns="http://www.w3.org/2000/svg">
<g transform="translate(0, 3.5) scale(0.97, 0.97)">
<path d="M32.109 5.96701C31.7045 5.08478 30.3059 5.12714 29.289 5.23576C28.3344 5.33773 26.9123 5.62332 25.4857 5.99865C25.4226 5.67382 25.3508 5.35117 25.2729 5.02408C24.977 3.81148 24.4685 2.62531 23.7617 1.60735C23.5754 1.33051 23.2313 0.904318 23.0184 0.635747C22.9464 0.545033 22.8746 0.454206 22.8041 0.362561C22.742 0.284495 22.6551 0.157697 22.5722 0.101433C22.38 -0.0388699 22.0939 -0.0333093 21.9096 0.116171C22.0938 -0.0307999 22.3785 -0.0327448 22.5621 0.114088C22.6415 0.167216 22.7217 0.310569 22.7744 0.382644C22.8395 0.477851 22.9031 0.574128 22.9658 0.670882C23.0918 0.863524 23.2153 1.05882 23.3307 1.25724C23.6698 1.84664 23.9011 2.4952 24.0231 3.15456C24.1906 4.03203 24.1704 4.92435 24.1147 5.80997C24.1108 5.88203 24.1053 5.99138 24.0991 6.11315C22.6468 4.74801 20.8188 3.75298 18.7787 3.28607C18.7907 3.2585 18.8035 3.23136 18.8168 3.20521C18.9248 2.99006 19.0831 2.79178 19.2351 2.60287C20.0226 1.67832 20.9493 0.870594 21.9096 0.116171C21.4743 0.457443 21.0283 0.790475 20.5744 1.10977C20.2685 1.33732 19.9592 1.55812 19.6473 1.77916C19.2576 2.06001 18.8602 2.32662 18.5005 2.65153C18.335 2.80525 18.1865 2.9565 18.0715 3.14697C17.4417 3.04308 16.7944 2.98878 16.1339 2.98878C14.5488 2.98878 13.0392 3.30052 11.6674 3.86369C11.5777 3.80275 11.4833 3.74746 11.3845 3.6926C10.9535 3.46119 10.5011 3.29651 10.0527 3.11413C9.6946 2.97251 9.33904 2.83061 8.98509 2.68126C8.46452 2.47745 7.94807 2.25859 7.44006 2.02918C8.5613 2.53681 9.66319 3.10398 10.6596 3.817C10.7928 3.91748 10.9293 4.02231 11.0533 4.13685C9.27654 4.99009 7.76307 6.27689 6.66173 7.85362C6.41466 7.07657 6.20581 6.28592 6.1528 5.47081C6.10544 4.8026 6.16701 4.1193 6.34792 3.46825C6.41007 3.24878 6.48083 3.03043 6.55462 2.81412C6.59119 2.70559 6.62866 2.59734 6.66795 2.48975C6.7019 2.39953 6.74336 2.25347 6.80647 2.17959C6.94751 1.99369 7.22455 1.93014 7.44006 2.02918C7.22362 1.92683 6.94471 1.98903 6.79346 2.16968C6.72697 2.23874 6.67302 2.39626 6.63404 2.47721C6.58866 2.5826 6.54186 2.68748 6.49479 2.79231C6.35857 3.09927 6.12772 3.59614 6.01766 3.90864C5.58766 5.06148 5.39236 6.33092 5.40984 7.57662C5.42088 8.14316 5.44521 8.69319 5.50473 9.25509C5.52578 9.42554 5.55142 9.59811 5.59407 9.76648C5.03192 11.0682 4.72135 12.4963 4.72135 13.9944C4.72135 14.2269 4.7292 14.4576 4.74393 14.6865C3.39314 15.4986 2.28831 16.2563 1.50911 16.9073C0.704399 17.5795 -0.31776 18.5773 0.0945004 19.4764C0.459866 20.2733 1.65693 20.2814 2.20352 20.26C2.25256 20.258 2.29644 20.2559 2.33392 20.254C3.27989 20.2074 4.54585 19.9853 6.09667 19.5939C6.15699 19.5787 6.21784 19.5631 6.27879 19.5474C6.2871 19.5611 6.29519 19.5749 6.30355 19.5885C6.93993 19.4519 7.45926 19.304 8.30047 19.0544C8.6272 18.9575 9.21343 18.841 10.8006 18.1718C11.5721 17.8465 12.5801 17.3907 13.9099 16.7429C14.9395 16.2413 15.9067 15.7057 16.7747 15.225C17.1606 14.9364 17.5848 14.5501 17.9662 14.0454C18.1659 13.781 18.354 13.4841 18.5185 13.1519C18.5888 13.01 19.4607 11.1826 18.883 9.07282C18.8238 8.85662 18.7674 8.7001 18.7366 8.6178C18.8039 8.73215 18.9038 8.89407 19.0357 9.08085C19.2825 9.43057 20.1899 10.6858 21.7359 11.3788C22.1071 11.5452 22.4771 11.6621 22.837 11.7413L23.1436 11.7417C23.1043 11.7618 23.0652 11.7819 23.0258 11.802C24.0143 12.0196 24.9256 11.9521 25.5709 11.84C25.669 11.7862 25.7662 11.7325 25.8628 11.6788C26.0149 11.6414 26.1351 11.6064 26.2166 11.5815C26.08 11.6449 25.8865 11.7413 25.6653 11.8752C25.3166 12.0861 24.0426 12.9083 23.3549 14.4619C22.4659 16.4702 23.1624 18.3321 23.319 18.7233C23.2595 18.6215 23.17 18.475 23.0518 18.3052C22.7635 17.8912 21.6396 16.2772 19.5262 15.7178C19.0965 15.6041 18.6807 15.5439 18.2917 15.52C16.5375 16.7018 15.5818 18.119 14.7546 19.0004C14.066 19.7341 12.7107 21.5095 11.5894 24.0927C12.982 24.6763 14.5187 25 16.1339 25C22.4368 25 27.5464 20.0726 27.5464 13.9944C27.5464 12.9441 27.3934 11.9283 27.1084 10.9663C27.1569 10.9377 27.2051 10.9092 27.2531 10.8807C27.5667 10.6943 27.8695 10.5097 28.16 10.3275C29.5038 9.48468 30.5261 8.73108 31.1984 8.08771C31.5221 7.77795 32.5071 6.83536 32.109 5.96701ZM10.6358 15.7631C10.6148 15.7152 10.5828 15.6463 10.5393 15.5656C10.4333 15.369 10.02 14.6026 9.11546 14.2546C8.4816 14.0107 7.88657 14.0537 7.60939 14.1094L7.40645 14.1436C7.62194 14.0711 8.33029 13.8037 8.80239 13.0733C8.84071 13.0141 9.31965 12.2488 9.17298 11.2895C9.15794 11.1912 9.1411 11.1194 9.13175 11.0816C9.15559 11.1353 9.19139 11.2116 9.23999 11.3004C9.331 11.4666 9.66718 12.0643 10.3143 12.4442C11.153 12.9367 12.0517 12.7918 12.2824 12.7479C12.2189 12.7693 12.1284 12.8027 12.0239 12.8512C11.8591 12.9277 11.2542 13.2298 10.8707 13.883C10.3749 14.7274 10.5868 15.5828 10.6358 15.7631ZM1.28173 18.9701C1.34851 18.8135 1.60484 18.3957 2.58167 17.6212C3.18834 17.1402 3.97944 16.5969 4.91404 16.0177C5.07711 16.864 5.34059 17.6761 5.6921 18.4424C2.52069 19.2361 1.53008 19.0566 1.28173 18.9701ZM27.0674 9.56269C26.9839 9.61372 26.8992 9.66496 26.8138 9.71634C26.7707 9.74226 26.7271 9.76827 26.6836 9.79428L26.625 9.65567C26.3312 8.99577 25.9722 8.3693 25.5561 7.78346C25.5811 7.71332 25.6007 7.63944 25.6143 7.56185C25.6357 7.44456 25.6442 7.32615 25.6443 7.20765C26.9185 6.86677 28.2298 6.59649 29.1111 6.47918C30.2899 6.32227 30.7611 6.41694 30.9216 6.47312C30.8153 6.7217 30.2317 7.63023 27.0674 9.56269Z" fill="url(#paint0_radial_137_41710)"/>
<path d="M21.9095 0.116171C22.0939 -0.0333092 22.38 -0.0388698 22.5722 0.101433C22.655 0.157696 22.7419 0.284494 22.8041 0.362562C22.8746 0.454205 22.9463 0.545033 23.0183 0.635747C23.2312 0.904318 23.5753 1.33051 23.7617 1.60735C24.4685 2.62531 24.9769 3.81148 25.2728 5.02408C25.4044 5.5763 25.519 6.11569 25.6024 6.67473C25.6408 6.96664 25.668 7.26777 25.6142 7.56185C25.5058 8.18115 25.0179 8.56368 24.4007 8.69646C23.7615 8.82732 23.1522 8.71508 22.551 8.54237C20.9358 8.02689 19.4955 7.02837 18.5184 5.68048C18.0522 5.00925 17.6369 4.10261 17.9933 3.29406C18.1149 3.0301 18.2945 2.84278 18.5004 2.65153C18.8602 2.32662 19.2576 2.06001 19.6473 1.77915C19.9591 1.55812 20.2684 1.33732 20.5743 1.10977C21.0282 0.790476 21.4742 0.457442 21.9095 0.116171ZM21.9095 0.116171C20.9492 0.870593 20.0226 1.67832 19.235 2.60287C19.0831 2.79178 18.9247 2.99006 18.8167 3.20521C18.761 3.31502 18.7124 3.44157 18.7041 3.55C18.6988 3.699 18.7356 3.84022 18.7985 3.97878C19.3514 5.1659 22.1816 6.58408 23.4763 6.91735C23.6603 6.96732 23.8928 7.00829 24.0684 7.00761C24.1041 7.00775 24.1105 7.00702 24.0904 7.02923C24.086 7.03662 24.0774 7.04118 24.0736 7.04949C24.0347 7.08544 24 7.13033 23.9816 7.17912C23.9757 7.19991 23.9756 7.20125 23.9763 7.20862C23.9765 7.20982 23.9769 7.21296 23.9774 7.21261C23.9792 7.21025 23.9812 7.20868 23.9839 7.20684C23.986 7.20724 23.9876 7.19999 23.9896 7.19559L23.9959 7.18078C23.9983 7.17689 24.0004 7.16893 24.0025 7.16107L24.009 7.13803C24.0355 7.0319 24.0465 6.91885 24.057 6.80757C24.0762 6.59751 24.1027 6.0301 24.1147 5.80997C24.1703 4.92435 24.1905 4.03203 24.023 3.15456C23.9011 2.4952 23.6697 1.84664 23.3306 1.25724C23.2152 1.05882 23.0917 0.863524 22.9658 0.670882C22.903 0.574127 22.8395 0.47785 22.7743 0.382643C22.7216 0.31057 22.6415 0.167215 22.562 0.114088C22.3785 -0.0327459 22.0937 -0.0307998 21.9095 0.116171Z" fill="#FFB709"/>
<path d="M7.43998 2.02917C7.22448 1.93014 6.94743 1.99368 6.8064 2.17959C6.74328 2.25347 6.70183 2.39953 6.66788 2.48975C6.62858 2.59733 6.59111 2.70559 6.55454 2.81412C6.48076 3.03043 6.40999 3.24877 6.34785 3.46824C6.16694 4.1193 6.10536 4.8026 6.15272 5.4708C6.21062 6.36117 6.45433 7.2224 6.73085 8.06853C6.79899 8.28 6.96388 8.82017 7.03743 9.02294C7.07537 9.1286 7.1146 9.23578 7.16698 9.33235C7.16698 9.33235 7.17913 9.35317 7.17913 9.35317C7.18307 9.36033 7.18711 9.36755 7.19043 9.37076L7.20027 9.38366C7.20329 9.38747 7.20665 9.39413 7.20859 9.39325C7.2137 9.39364 7.21788 9.40168 7.21647 9.39319C7.21603 9.38392 7.19964 9.35705 7.18694 9.34466C7.15904 9.31055 7.12091 9.28329 7.08212 9.26152C7.05688 9.23802 7.01725 9.23159 7.07661 9.21969C7.24758 9.1787 7.4622 9.0854 7.62834 8.99379C8.79824 8.36953 11.1896 6.3327 11.4286 5.04996C11.4549 4.90086 11.4553 4.75506 11.4125 4.61188C11.3776 4.50853 11.2987 4.39674 11.2166 4.30368C11.0578 4.12036 10.8547 3.96427 10.6595 3.81699C9.66311 3.10398 8.56122 2.5368 7.43998 2.02917ZM7.43998 2.02917C7.94799 2.25859 8.46445 2.47744 8.98501 2.68126C9.33897 2.83061 9.69453 2.97251 10.0526 3.11413C10.5011 3.29651 10.9535 3.46119 11.3845 3.6926C11.6322 3.83024 11.8534 3.96988 12.0379 4.19752C12.5868 4.89898 12.4113 5.87523 12.1279 6.63551C11.5187 8.17146 10.3719 9.47677 8.93433 10.3543C8.39427 10.6623 7.83163 10.9132 7.17842 10.9359C6.54689 10.9512 5.97687 10.6944 5.71608 10.1185C5.58995 9.84583 5.54073 9.54729 5.50465 9.25509C5.44513 8.69319 5.42081 8.14316 5.40977 7.57661C5.39229 6.33092 5.58759 5.06148 6.01759 3.90863C6.12764 3.59614 6.3585 3.09926 6.49471 2.79231C6.54178 2.68748 6.58858 2.58259 6.63397 2.4772C6.67294 2.39626 6.72689 2.23874 6.79338 2.16968C6.94464 1.98903 7.22354 1.92682 7.43998 2.02917Z" fill="#FFB709"/>
<path d="M26.6251 9.65566C26.2403 8.79133 25.7439 7.98413 25.1535 7.25082C24.8699 6.89859 24.5646 6.56343 24.2396 6.24717C22.1716 4.2351 19.3037 2.98877 16.1339 2.98877C9.83099 2.98877 4.72144 7.91615 4.72144 13.9944C4.72144 14.2269 4.72929 14.4576 4.74402 14.6865C4.77309 15.1382 4.83024 15.5825 4.91413 16.0177C5.0772 16.8639 5.34068 17.6761 5.69219 18.4424L6.27888 19.5474C6.28719 19.5611 6.29527 19.5749 6.30364 19.5885C6.94001 19.4519 7.45935 19.304 8.30056 19.0544C8.62729 18.9575 9.21352 18.841 10.8007 18.1718L16.85 14.5291C17.225 14.3692 17.5972 14.2078 17.9663 14.0454C18.166 13.781 18.354 13.4841 18.5186 13.1519C18.5889 13.01 19.4608 11.1825 18.883 9.07281C18.8238 8.85661 18.7675 8.70009 18.7367 8.61779C18.804 8.73213 18.9039 8.89406 19.0357 9.08084C19.2825 9.43056 20.19 10.6858 21.736 11.3788C22.1072 11.5452 22.4772 11.6621 22.8371 11.7413L24.0825 11.7428L25.3823 11.7794C25.7703 11.712 26.0623 11.6286 26.2167 11.5815C26.0801 11.6449 25.8866 11.7413 25.6654 11.8752C25.3167 12.0861 24.0427 12.9083 23.355 14.4619C22.466 16.4702 23.1625 18.3321 23.3191 18.7233C23.2596 18.6215 23.1701 18.475 23.0519 18.3052C22.7636 17.8912 21.6397 16.2772 19.5263 15.7178C19.0966 15.6041 18.6808 15.5439 18.2918 15.5199C16.5376 16.7018 15.5819 18.119 14.7547 19.0004C14.066 19.7341 12.7108 21.5094 11.5895 24.0927C12.982 24.6763 14.5188 25 16.1339 25C22.4369 25 27.5464 20.0726 27.5464 13.9944C27.5464 12.8908 27.3779 11.8251 27.0644 10.82L26.8894 10.2815L26.6251 9.65566ZM12.024 12.8512C11.8592 12.9277 11.2543 13.2298 10.8708 13.883C10.375 14.7273 10.5869 15.5828 10.6359 15.763C10.6148 15.7152 10.5829 15.6463 10.5394 15.5656C10.4334 15.369 10.02 14.6026 9.11554 14.2546C8.48169 14.0107 7.88666 14.0537 7.60948 14.1094L7.40654 14.1436C7.62203 14.0711 8.33037 13.8037 8.80248 13.0733C8.84079 13.0141 9.31974 12.2488 9.17306 11.2895C9.15803 11.1912 9.14118 11.1194 9.13184 11.0816C9.15568 11.1353 9.19147 11.2116 9.24008 11.3004C9.33109 11.4666 9.66727 12.0643 10.3143 12.4442C11.1531 12.9367 12.0518 12.7918 12.2825 12.7478C12.2189 12.7693 12.1285 12.8027 12.024 12.8512Z" fill="url(#paint1_radial_137_41710)"/>
<path d="M27.5463 13.9944C27.5463 12.9808 27.4037 11.9994 27.1377 11.0673C26.8974 11.2041 26.7211 11.2962 26.6276 11.3443C26.3919 11.4656 26.189 11.5618 26.0049 11.6422C26.091 11.619 26.1624 11.598 26.2165 11.5815C26.08 11.6449 25.8864 11.7413 25.6652 11.8752C25.3165 12.0861 24.0426 12.9083 23.3548 14.4619C22.4658 16.4702 23.1624 18.3321 23.3189 18.7233C23.2594 18.6215 23.1699 18.475 23.0517 18.3052C22.7634 17.8912 21.6395 16.2772 19.5261 15.7178C19.0965 15.6041 18.6806 15.5439 18.2916 15.52C16.5374 16.7018 15.5817 18.119 14.7545 19.0004C14.0659 19.7341 12.7107 21.5095 11.5894 24.0927C12.9819 24.6763 14.5186 25 16.1338 25C22.4367 25 27.5463 20.0726 27.5463 13.9944Z" fill="url(#paint2_radial_137_41710)"/>
<path opacity="0.18" d="M13.9904 13.104C15.4079 10.0165 14.9344 6.82089 12.9328 5.9663C10.9313 5.11172 8.15959 6.9218 6.74211 10.0092C5.32463 13.0967 5.79813 16.2923 7.79969 17.1469C9.80126 18.0015 12.5729 16.1914 13.9904 13.104Z" fill="white"/>
<path opacity="0.22" d="M12.4207 12.504C13.5387 10.069 13.2915 7.60251 11.8685 6.99498C10.4456 6.38746 8.38583 7.86894 7.26788 10.304C6.14993 12.739 6.39715 15.2055 7.82007 15.813C9.24299 16.4205 11.3028 14.939 12.4207 12.504Z" fill="white"/>
<path d="M25.6352 7.21009C26.9123 6.86805 28.2278 6.59676 29.1113 6.47917C30.2901 6.32226 30.7612 6.41693 30.9217 6.47311C30.8154 6.72169 30.2319 7.63022 27.0676 9.56268C26.984 9.61371 26.8993 9.66495 26.8139 9.71633C26.5805 9.85675 26.3403 9.99843 26.0935 10.1412C25.1564 10.6833 24.126 11.2408 23.0259 11.802C24.0145 12.0196 24.9258 11.952 25.571 11.84C25.9195 11.6487 26.2585 11.4586 26.5867 11.2701C26.8141 11.1394 27.0362 11.0096 27.2532 10.8807C27.5668 10.6943 27.8696 10.5097 28.1601 10.3275C29.5039 9.48467 30.5262 8.73107 31.1985 8.0877C31.5222 7.77794 32.5072 6.83535 32.1091 5.967C31.7046 5.08477 30.306 5.12713 29.2891 5.23575C28.3285 5.33836 26.8944 5.62689 25.4588 6.00572" fill="#FFB709"/>
<path d="M7.72549 17.8823C7.21462 18.0345 6.72026 18.174 6.24518 18.2999C6.05367 18.3506 5.86968 18.3979 5.69211 18.4424C2.52069 19.2361 1.53008 19.0566 1.28174 18.9701C1.34852 18.8135 1.60485 18.3957 2.58167 17.6212C3.18834 17.1402 3.97944 16.5969 4.91404 16.0177C4.83016 15.5824 4.773 15.1381 4.74393 14.6865C3.39314 15.4986 2.28831 16.2563 1.50911 16.9072C0.704399 17.5795 -0.317761 18.5773 0.0945011 19.4764C0.459866 20.2733 1.65693 20.2814 2.20352 20.2599C2.25256 20.258 2.29644 20.2559 2.33392 20.254C3.27989 20.2074 4.54586 19.9853 6.09667 19.5939C6.15699 19.5787 6.21784 19.5631 6.2788 19.5474C6.81115 19.4105 7.36728 19.2566 7.94411 19.0865C8.85015 18.8195 9.807 18.5128 10.8006 18.1718C11.5721 17.8465 12.5801 17.3906 13.9099 16.7428C14.9395 16.2413 15.9067 15.7056 16.7747 15.225C17.1606 14.9364 17.5848 14.55 17.9662 14.0454C17.5971 14.2078 17.2249 14.3692 16.8499 14.5291C13.6182 15.907 10.4389 17.0738 7.72549 17.8823Z" fill="url(#paint3_radial_137_41710)"/>
<defs>
<radialGradient id="paint0_radial_137_41710" cx="0" cy="0" r="1" gradientTransform="matrix(75.276 -22.3539 12.7764 40.0107 34.1338 -7.69091)" gradientUnits="userSpaceOnUse">
<stop offset="0.00559" stop-color="#F2601B"/>
<stop offset="1" stop-color="#FFC61F"/>
</radialGradient>
<radialGradient id="paint1_radial_137_41710" cx="0" cy="0" r="1" gradientUnits="userSpaceOnUse" gradientTransform="translate(41.7427 12.5022) scale(26.3977 25.4566)">
<stop offset="0.00559" stop-color="#F2611B"/>
<stop offset="1" stop-color="#FEB10A"/>
</radialGradient>
<radialGradient id="paint2_radial_137_41710" cx="0" cy="0" r="1" gradientTransform="matrix(16.9394 -7.93219 4.07629 8.09544 16.7149 15.3326)" gradientUnits="userSpaceOnUse">
<stop offset="0.00559" stop-color="#F2611B"/>
<stop offset="1" stop-color="#FEB10A"/>
</radialGradient>
<radialGradient id="paint3_radial_137_41710" cx="0" cy="0" r="1" gradientTransform="matrix(18.8497 -5.5976 3.19931 10.019 19.0438 12.1319)" gradientUnits="userSpaceOnUse">
<stop offset="0.00559" stop-color="#F2601B"/>
<stop offset="1" stop-color="#FFC61F"/>
</radialGradient>
</defs>
</g>
</svg>

