<svg width="201" height="32" viewBox="0 0 201 32" fill="none" xmlns="http://www.w3.org/2000/svg">
<g clip-path="url(#clip0_48_35792)">
<path d="M41.3712 7.63777C40.85 6.50852 39.048 6.56274 37.7377 6.70178C36.5078 6.83229 34.6755 7.19785 32.8373 7.67828C32.756 7.26249 32.6636 6.8495 32.5631 6.43083C32.1819 4.8787 31.5267 3.36039 30.6161 2.05741C30.3759 1.70306 29.9326 1.15753 29.6583 0.813757C29.5655 0.697642 29.4731 0.581384 29.3823 0.464078C29.3021 0.364153 29.1902 0.201852 29.0834 0.129834C28.8358 -0.0497534 28.4672 -0.0426359 28.2297 0.148699C28.467 -0.0394239 28.8339 -0.0419133 29.0704 0.146032C29.1727 0.214036 29.276 0.397529 29.3439 0.489784C29.4279 0.611649 29.5097 0.734883 29.5906 0.858728C29.7528 1.10531 29.912 1.35529 30.0607 1.60927C30.4976 2.3637 30.7957 3.19386 30.9528 4.03784C31.1686 5.161 31.1426 6.30317 31.0709 7.43677C31.0659 7.529 31.0588 7.66897 31.0507 7.82483C29.1796 6.07745 26.8243 4.80381 24.1956 4.20618C24.2111 4.17087 24.2276 4.13614 24.2447 4.10267C24.3838 3.82727 24.5879 3.57347 24.7836 3.33168C25.7984 2.14825 26.9923 1.11436 28.2297 0.148699C27.6688 0.585527 27.0942 1.01181 26.5093 1.42051C26.1151 1.71177 25.7166 1.99439 25.3148 2.27732C24.8127 2.63682 24.3007 2.97807 23.8371 3.39396C23.6239 3.59072 23.4327 3.78432 23.2844 4.02812C22.473 3.89515 21.6389 3.82564 20.7878 3.82564C18.7455 3.82564 16.8006 4.22466 15.033 4.94553C14.9175 4.86752 14.7958 4.79675 14.6685 4.72653C14.1132 4.43033 13.5303 4.21953 12.9525 3.98609C12.4911 3.80482 12.033 3.62318 11.5769 3.43202C10.9062 3.17113 10.2408 2.891 9.58622 2.59735C11.0309 3.24711 12.4506 3.9731 13.7345 4.88576C13.9061 5.01437 14.082 5.14856 14.2417 5.29517C11.9525 6.38731 10.0024 8.03442 8.58339 10.0526C8.26504 9.05802 7.99594 8.04598 7.92765 7.00263C7.86662 6.14733 7.94596 5.27271 8.17905 4.43936C8.25913 4.15844 8.3503 3.87895 8.44537 3.60208C8.49249 3.46316 8.54077 3.32459 8.5914 3.18688C8.63514 3.0714 8.68855 2.88444 8.76988 2.78988C8.95159 2.55192 9.30856 2.47058 9.58622 2.59735C9.30735 2.46634 8.948 2.54596 8.75311 2.77719C8.66744 2.86559 8.59792 3.06721 8.54771 3.17082C8.48923 3.30572 8.42893 3.43998 8.36828 3.57416C8.19278 3.96706 7.89532 4.60306 7.75352 5.00306C7.19949 6.4787 6.94785 8.10358 6.97037 9.69807C6.9846 10.4232 7.01594 11.1273 7.09263 11.8465C7.11975 12.0647 7.15279 12.2856 7.20774 12.5011C6.48344 14.1673 6.08328 15.9953 6.08328 17.9128C6.08328 18.2104 6.09339 18.5057 6.11237 18.7987C4.37192 19.8382 2.94839 20.8081 1.94443 21.6413C0.907591 22.5018 -0.409422 23.7789 0.12176 24.9298C0.592519 25.9498 2.13489 25.9602 2.83916 25.9328C2.90234 25.9303 2.95887 25.9275 3.00717 25.9251C4.22601 25.8655 5.85716 25.5812 7.85532 25.0802C7.93305 25.0607 8.01145 25.0407 8.08998 25.0207C8.10069 25.0382 8.11111 25.0559 8.12188 25.0733C8.94183 24.8984 9.61097 24.7092 10.6948 24.3897C11.1158 24.2656 11.8711 24.1165 13.9162 23.2599C14.9103 22.8435 16.209 22.26 17.9224 21.4309C19.2489 20.7889 20.4952 20.1032 21.6136 19.488C22.1108 19.1186 22.6574 18.6241 23.1487 17.9781C23.4061 17.6397 23.6484 17.2597 23.8604 16.8344C23.951 16.6528 25.0744 14.3137 24.33 11.6132C24.2537 11.3365 24.181 11.1361 24.1414 11.0308C24.2281 11.1771 24.3569 11.3844 24.5267 11.6235C24.8447 12.0711 26.0139 13.6778 28.0059 14.5649C28.4841 14.7779 28.9609 14.9275 29.4246 15.0289L29.8196 15.0294C29.769 15.0551 29.7186 15.0808 29.6678 15.1066C30.9415 15.385 32.1157 15.2986 32.9471 15.1553C33.0735 15.0863 33.1987 15.0175 33.3232 14.9488C33.5192 14.901 33.674 14.8561 33.7791 14.8243C33.6031 14.9055 33.3537 15.0289 33.0687 15.2002C32.6195 15.4702 30.978 16.5226 30.0919 18.5112C28.9464 21.0819 29.8439 23.4651 30.0456 23.9659C29.9689 23.8355 29.8536 23.648 29.7013 23.4307C29.3299 22.9007 27.8818 20.8348 25.1587 20.1188C24.6051 19.9733 24.0693 19.8962 23.5681 19.8655C21.308 21.3783 20.0766 23.1924 19.0108 24.3205C18.1234 25.2597 16.3773 27.5321 14.9325 30.8387C16.7268 31.5857 18.7068 32 20.7878 32C28.909 32 35.4924 25.693 35.4924 17.9128C35.4924 16.5684 35.2953 15.2683 34.9282 14.0368C34.9906 14.0003 35.0528 13.9637 35.1145 13.9273C35.5187 13.6887 35.9088 13.4525 36.283 13.2193C38.0145 12.1404 39.3317 11.1758 40.1979 10.3523C40.615 9.95578 41.8842 8.74926 41.3712 7.63777ZM13.7038 20.1767C13.6767 20.1155 13.6355 20.0272 13.5795 19.924C13.4429 19.6724 12.9103 18.6913 11.7449 18.2459C10.9282 17.9337 10.1615 17.9888 9.80441 18.0601L9.54293 18.1038C9.82058 18.011 10.7333 17.6688 11.3415 16.7339C11.3909 16.658 12.008 15.6784 11.819 14.4506C11.7997 14.3248 11.7779 14.2329 11.7659 14.1845C11.7966 14.2532 11.8427 14.3509 11.9054 14.4645C12.0226 14.6773 12.4558 15.4423 13.2895 15.9286C14.3702 16.559 15.5281 16.3735 15.8254 16.3173C15.7435 16.3448 15.627 16.3874 15.4923 16.4495C15.28 16.5474 14.5007 16.9342 14.0065 17.7702C13.3676 18.851 13.6407 19.946 13.7038 20.1767ZM1.65147 24.2817C1.73751 24.0813 2.06778 23.5465 3.32638 22.5552C4.10805 21.9395 5.12735 21.2441 6.33155 20.5027C6.54166 21.5859 6.88114 22.6254 7.33405 23.6063C3.24781 24.6222 1.97144 24.3924 1.65147 24.2817ZM34.8753 12.2402C34.7677 12.3056 34.6586 12.3711 34.5485 12.4369C34.493 12.4701 34.4369 12.5034 34.3808 12.5367L34.3053 12.3593C33.9267 11.5146 33.4642 10.7127 32.9281 9.96283C32.9603 9.87305 32.9855 9.77849 33.003 9.67917C33.0306 9.52903 33.0415 9.37747 33.0416 9.22579C34.6835 8.78947 36.373 8.44351 37.5086 8.29335C39.0274 8.09251 39.6345 8.21369 39.8413 8.28559C39.7043 8.60378 38.9524 9.7667 34.8753 12.2402Z" fill="url(#paint0_radial_48_35792)"/>
<path d="M28.2297 0.148698C28.4672 -0.0426358 28.8358 -0.0497533 29.0834 0.129834C29.1902 0.201851 29.3022 0.364153 29.3823 0.464079C29.4731 0.581383 29.5656 0.697642 29.6583 0.813756C29.9326 1.15753 30.3759 1.70305 30.6161 2.05741C31.5268 3.36039 32.1819 4.8787 32.5631 6.43083C32.7327 7.13766 32.8804 7.82808 32.9878 8.54365C33.0372 8.9173 33.0724 9.30274 33.003 9.67916C32.8634 10.4719 32.2347 10.9615 31.4395 11.1315C30.6159 11.299 29.8308 11.1553 29.0562 10.9342C26.975 10.2744 25.1192 8.99632 23.8603 7.27102C23.2597 6.41184 22.7246 5.25135 23.1838 4.2164C23.3404 3.87853 23.5718 3.63876 23.8371 3.39396C24.3007 2.97807 24.8127 2.63682 25.3148 2.27732C25.7166 1.99439 26.1152 1.71177 26.5093 1.42051C27.0942 1.01181 27.6688 0.585525 28.2297 0.148698ZM28.2297 0.148698C26.9924 1.11436 25.7984 2.14825 24.7836 3.33168C24.5879 3.57347 24.3838 3.82727 24.2447 4.10267C24.1729 4.24323 24.1103 4.40521 24.0996 4.544C24.0928 4.73472 24.1402 4.91548 24.2213 5.09284C24.9336 6.61235 28.5802 8.42762 30.2484 8.85421C30.4855 8.91818 30.785 8.97062 31.0113 8.96975C31.0573 8.96993 31.0655 8.96899 31.0397 8.99741C31.034 9.00688 31.0228 9.01272 31.0179 9.02334C30.9678 9.06937 30.9231 9.12682 30.8994 9.18927C30.8919 9.21588 30.8917 9.2176 30.8926 9.22703C30.8929 9.22857 30.8934 9.23259 30.8941 9.23214C30.8963 9.22911 30.8989 9.22711 30.9025 9.22475C30.9052 9.22526 30.9072 9.21599 30.9098 9.21036L30.9179 9.1914C30.921 9.18642 30.9237 9.17623 30.9263 9.16618L30.9348 9.13668C30.9689 9.00083 30.9831 8.85613 30.9966 8.71369C31.0214 8.44481 31.0555 7.71852 31.0709 7.43676C31.1426 6.30317 31.1686 5.161 30.9528 4.03784C30.7957 3.19386 30.4976 2.3637 30.0607 1.60927C29.912 1.35529 29.7528 1.10531 29.5906 0.858729C29.5097 0.734882 29.4279 0.611648 29.3439 0.489783C29.276 0.397529 29.1727 0.214035 29.0704 0.146032C28.8339 -0.0419148 28.467 -0.0394238 28.2297 0.148698Z" fill="#FFB709"/>
<path d="M9.58623 2.5972C9.30856 2.47043 8.9516 2.55177 8.76988 2.78973C8.68856 2.88429 8.63515 3.07125 8.5914 3.18673C8.54077 3.32444 8.4925 3.463 8.44538 3.60193C8.35031 3.8788 8.25913 4.15828 8.17906 4.43921C7.94596 5.27256 7.86663 6.14718 7.92765 7.00248C8.00225 8.14216 8.31626 9.24453 8.67255 10.3276C8.76034 10.5983 8.9728 11.2897 9.06756 11.5492C9.11645 11.6845 9.16699 11.8217 9.23448 11.9453C9.23448 11.9453 9.25014 11.9719 9.25014 11.9719C9.25521 11.9811 9.26042 11.9903 9.26469 11.9944L9.27737 12.0109C9.28127 12.0158 9.28559 12.0243 9.28809 12.0232C9.29468 12.0237 9.30007 12.034 9.29824 12.0231C9.29768 12.0113 9.27656 11.9769 9.2602 11.961C9.22426 11.9174 9.17512 11.8825 9.12514 11.8546C9.09262 11.8245 9.04156 11.8163 9.11805 11.8011C9.33833 11.7486 9.61487 11.6292 9.82893 11.5119C11.3363 10.7128 14.4175 8.1057 14.7255 6.46381C14.7593 6.27296 14.7598 6.08633 14.7047 5.90306C14.6597 5.77077 14.558 5.62768 14.4523 5.50856C14.2477 5.27391 13.986 5.07412 13.7345 4.88561C12.4507 3.97295 11.0309 3.24696 9.58623 2.5972ZM9.58623 2.5972C10.2408 2.89084 10.9062 3.17098 11.5769 3.43186C12.033 3.62303 12.4911 3.80467 12.9525 3.98593C13.5303 4.21938 14.1132 4.43018 14.6685 4.72638C14.9877 4.90256 15.2727 5.0813 15.5104 5.37268C16.2177 6.27054 15.9915 7.52015 15.6264 8.4933C14.8415 10.4593 13.3639 12.1301 11.5116 13.2533C10.8158 13.6476 10.0909 13.9688 9.24922 13.9978C8.43552 14.0174 7.70107 13.6887 7.36506 12.9516C7.20254 12.6025 7.13913 12.2204 7.09264 11.8464C7.01595 11.1271 6.9846 10.4231 6.97038 9.69792C6.94786 8.10344 7.19949 6.47855 7.75353 5.0029C7.89533 4.60291 8.19278 3.96691 8.36829 3.57401C8.42894 3.43982 8.48924 3.30557 8.54771 3.17067C8.59793 3.06706 8.66744 2.86544 8.75312 2.77704C8.948 2.54581 9.30736 2.46619 9.58623 2.5972Z" fill="#FFB709"/>
<path d="M34.3053 12.3593C33.8094 11.253 33.1699 10.2197 32.4092 9.28111C32.0438 8.83026 31.6505 8.40124 31.2317 7.99644C28.5671 5.42099 24.872 3.82568 20.7878 3.82568C12.6667 3.82568 6.08325 10.1327 6.08325 17.9129C6.08325 18.2105 6.09337 18.5058 6.11235 18.7988C6.1498 19.3769 6.22345 19.9456 6.33152 20.5027C6.54164 21.5859 6.88112 22.6255 7.33403 23.6063L8.08996 25.0207C8.10066 25.0382 8.11108 25.0559 8.12186 25.0734C8.9418 24.8985 9.61094 24.7092 10.6948 24.3897C11.1158 24.2656 11.8711 24.1166 13.9162 23.26L21.7105 18.5973C22.1936 18.3926 22.6731 18.186 23.1487 17.9781C23.4061 17.6397 23.6483 17.2597 23.8604 16.8344C23.9509 16.6529 25.0743 14.3137 24.3299 11.6133C24.2537 11.3365 24.181 11.1362 24.1414 11.0308C24.2281 11.1772 24.3568 11.3845 24.5267 11.6235C24.8447 12.0712 26.0139 13.6779 28.0058 14.565C28.4841 14.7779 28.9609 14.9276 29.4246 15.0289L31.0293 15.0309L32.7039 15.0776C33.2039 14.9914 33.5801 14.8847 33.7791 14.8243C33.6031 14.9055 33.3537 15.029 33.0687 15.2003C32.6195 15.4703 30.978 16.5226 30.0919 18.5113C28.9464 21.082 29.8439 23.4652 30.0456 23.9659C29.9689 23.8355 29.8536 23.648 29.7013 23.4307C29.3298 22.9008 27.8818 20.8348 25.1587 20.1189C24.6051 19.9733 24.0693 19.8962 23.5681 19.8656C21.3079 21.3783 20.0765 23.1924 19.0107 24.3206C18.1234 25.2598 16.3773 27.5321 14.9325 30.8388C16.7267 31.5857 18.7068 32 20.7878 32C28.9089 32 35.4924 25.693 35.4924 17.9129C35.4924 16.5002 35.2752 15.1362 34.8713 13.8497L34.6459 13.1603L34.3053 12.3593ZM15.4923 16.4496C15.2799 16.5475 14.5006 16.9342 14.0065 17.7703C13.3676 18.8511 13.6406 19.9461 13.7038 20.1768C13.6767 20.1155 13.6355 20.0273 13.5795 19.9241C13.4428 19.6724 12.9103 18.6914 11.7449 18.2459C10.9282 17.9337 10.1615 17.9888 9.80438 18.0601L9.54291 18.1038C9.82055 18.011 10.7332 17.6688 11.3415 16.7339C11.3909 16.6581 12.008 15.6785 11.819 14.4507C11.7996 14.3248 11.7779 14.2329 11.7659 14.1845C11.7966 14.2533 11.8427 14.3509 11.9053 14.4645C12.0226 14.6773 12.4558 15.4423 13.2895 15.9286C14.3702 16.559 15.5281 16.3735 15.8254 16.3173C15.7435 16.3448 15.627 16.3875 15.4923 16.4496Z" fill="url(#paint1_radial_48_35792)"/>
<path d="M35.4924 17.9127C35.4924 16.6153 35.3087 15.3591 34.9659 14.166C34.6564 14.3412 34.4292 14.4591 34.3088 14.5206C34.0051 14.6758 33.7436 14.799 33.5064 14.9019C33.6174 14.8722 33.7094 14.8453 33.7791 14.8242C33.6031 14.9054 33.3538 15.0288 33.0687 15.2001C32.6195 15.4701 30.978 16.5225 30.0919 18.5111C28.9464 21.0818 29.8439 23.465 30.0456 23.9657C29.9689 23.8354 29.8537 23.6479 29.7013 23.4305C29.3299 22.9006 27.8818 20.8347 25.1588 20.1187C24.6052 19.9732 24.0693 19.896 23.5682 19.8654C21.308 21.3782 20.0766 23.1923 19.0108 24.3204C18.1235 25.2596 16.3773 27.532 14.9326 30.8386C16.7268 31.5856 18.7068 31.9999 20.7879 31.9999C28.909 31.9999 35.4924 25.6928 35.4924 17.9127Z" fill="url(#paint2_radial_48_35792)"/>
<path opacity="0.18" d="M18.0262 16.773C19.8526 12.821 19.2425 8.73062 16.6636 7.63675C14.0846 6.54288 10.5134 8.85979 8.68706 12.8117C6.86069 16.7636 7.47077 20.854 10.0497 21.9479C12.6287 23.0418 16.1999 20.7249 18.0262 16.773Z" fill="white"/>
<path opacity="0.22" d="M16.0039 16.005C17.4443 12.8882 17.1258 9.73111 15.2924 8.95348C13.459 8.17584 10.8051 10.0721 9.36463 13.189C7.92419 16.3058 8.24273 19.4629 10.0761 20.2405C11.9095 21.0182 14.5634 19.1219 16.0039 16.005Z" fill="white"/>
<path d="M33.0298 9.22884C34.6753 8.79103 36.3702 8.44378 37.5086 8.29326C39.0274 8.09241 39.6345 8.2136 39.8413 8.2855C39.7043 8.60368 38.9524 9.76661 34.8753 12.2402C34.7677 12.3055 34.6586 12.3711 34.5485 12.4368C34.2478 12.6166 33.9383 12.7979 33.6203 12.9807C32.4129 13.6745 31.0852 14.3882 29.6678 15.1065C30.9415 15.385 32.1157 15.2985 32.9471 15.1552C33.3961 14.9103 33.8329 14.6669 34.2558 14.4256C34.5488 14.2584 34.8349 14.0922 35.1145 13.9272C35.5187 13.6886 35.9088 13.4524 36.283 13.2192C38.0145 12.1403 39.3317 11.1757 40.1979 10.3522C40.615 9.95569 41.8842 8.74917 41.3712 7.63768C40.85 6.50843 39.048 6.56265 37.7377 6.70168C36.5001 6.83302 34.6523 7.20234 32.8025 7.68725" fill="#FFB709"/>
<path d="M9.95399 22.8893C9.29576 23.0841 8.6588 23.2627 8.04667 23.4238C7.79992 23.4888 7.56286 23.5493 7.33406 23.6062C3.24781 24.6221 1.97145 24.3924 1.65147 24.2816C1.73751 24.0813 2.06778 23.5465 3.32639 22.5551C4.10805 21.9394 5.12735 21.244 6.33155 20.5026C6.22347 19.9455 6.14983 19.3768 6.11238 18.7987C4.37193 19.8381 2.94839 20.808 1.94443 21.6412C0.907591 22.5017 -0.409423 23.7789 0.121761 24.9298C0.59252 25.9497 2.13489 25.9601 2.83916 25.9327C2.90234 25.9302 2.95887 25.9275 3.00717 25.9251C4.22601 25.8654 5.85716 25.5811 7.85533 25.0801C7.93305 25.0607 8.01145 25.0407 8.08999 25.0206C8.7759 24.8454 9.49246 24.6484 10.2357 24.4307C11.4031 24.0889 12.6359 23.6964 13.9162 23.2599C14.9103 22.8435 16.209 22.26 17.9224 21.4308C19.2489 20.7888 20.4952 20.1032 21.6136 19.4879C22.1108 19.1186 22.6574 18.624 23.1487 17.978C22.6732 18.1859 22.1937 18.3925 21.7105 18.5971C17.5465 20.3609 13.4501 21.8544 9.95399 22.8893Z" fill="url(#paint3_radial_48_35792)"/>
<path d="M57.4964 28.6095C55.0205 28.6095 52.9689 28.1075 51.3405 27.1029C49.7121 26.0989 48.5747 24.7419 47.9282 23.0324L53.0469 20.1802C53.9167 22.1675 55.4556 23.1606 57.6633 23.1606C59.4922 23.1606 60.4069 22.6586 60.4069 21.6546C60.4069 20.9922 59.8829 20.458 58.8343 20.052C58.3883 19.8812 57.407 19.5926 55.8902 19.1866C53.7492 18.5885 52.0542 17.7548 50.8051 16.6864C49.5561 15.5967 48.9318 14.0907 48.9318 12.1673C48.9318 10.0949 49.7013 8.41756 51.2403 7.13581C52.8014 5.85354 54.742 5.2124 57.0613 5.2124C59.024 5.2124 60.764 5.65055 62.2802 6.52686C63.797 7.40265 64.9566 8.67402 65.7597 10.3405L60.7412 13.1609C60.0053 11.4945 58.7899 10.6613 57.0949 10.6613C56.3812 10.6613 55.8344 10.7999 55.4556 11.0776C55.0985 11.3554 54.9202 11.7079 54.9202 12.1356C54.9202 12.6267 55.1879 13.0436 55.7233 13.3852C56.2809 13.7273 57.3512 14.1224 58.9351 14.5714C60.0725 14.8918 60.9867 15.1908 61.6782 15.4685C62.3696 15.7463 63.1277 16.1522 63.953 16.6864C64.7783 17.1993 65.3917 17.8727 65.7933 18.7059C66.1948 19.5178 66.3953 20.4792 66.3953 21.5902C66.3953 23.7913 65.5814 25.5113 63.953 26.7504C62.3252 27.9896 60.1728 28.6095 57.4964 28.6095Z" fill="#212121"/>
<path d="M119.956 28.1285L115.875 20.885H113.734V28.1285H107.745V5.69287H117.113C119.499 5.69287 121.495 6.43006 123.101 7.90441C124.729 9.35748 125.543 11.2056 125.543 13.4493C125.543 14.7955 125.187 16.0346 124.472 17.1669C123.759 18.2784 122.789 19.1651 121.562 19.8275L126.38 28.1285H119.956ZM113.734 10.9813V16.0134H117.046C117.782 16.0346 118.384 15.8104 118.853 15.34C119.321 14.8702 119.555 14.2613 119.555 13.5132C119.555 12.7656 119.321 12.1567 118.853 11.6863C118.384 11.2165 117.782 10.9813 117.046 10.9813H113.734Z" fill="#212121"/>
<path d="M137.591 5.69287C139.955 5.69287 141.94 6.43006 143.546 7.90441C145.152 9.37876 145.955 11.2591 145.955 13.5454C145.955 15.8317 145.152 17.712 143.546 19.1863C141.94 20.6607 139.955 21.3979 137.591 21.3979H134.48V28.1285H128.491V5.69287H137.591ZM137.591 15.949C138.26 15.949 138.818 15.7247 139.264 15.2762C139.732 14.8276 139.966 14.2504 139.966 13.5454C139.966 12.8404 139.732 12.274 139.264 11.8467C138.818 11.3982 138.26 11.1734 137.591 11.1734H134.48V15.949H137.591Z" fill="#212121"/>
<path d="M154.279 22.744H163.345V28.1285H148.29V5.69287H163.178V11.0457H154.279V14.1543H162.341V19.4428H154.279V22.744Z" fill="#212121"/>
<path d="M192.101 28.6095C189.625 28.6095 187.574 28.1075 185.945 27.1029C184.317 26.0989 183.18 24.7419 182.533 23.0324L187.652 20.1802C188.521 22.1675 190.06 23.1606 192.269 23.1606C194.097 23.1606 195.012 22.6586 195.012 21.6546C195.012 20.9922 194.488 20.458 193.44 20.052C192.993 19.8812 192.012 19.5926 190.495 19.1866C188.354 18.5885 186.659 17.7548 185.41 16.6864C184.161 15.5967 183.536 14.0907 183.536 12.1673C183.536 10.0949 184.306 8.41756 185.845 7.13581C187.406 5.85354 189.347 5.2124 191.666 5.2124C193.629 5.2124 195.369 5.65055 196.885 6.52686C198.402 7.40265 199.562 8.67402 200.364 10.3405L195.346 13.1609C194.61 11.4945 193.395 10.6613 191.7 10.6613C190.986 10.6613 190.44 10.7999 190.06 11.0776C189.703 11.3554 189.525 11.7079 189.525 12.1356C189.525 12.6267 189.793 13.0436 190.328 13.3852C190.886 13.7273 191.956 14.1224 193.54 14.5714C194.677 14.8918 195.591 15.1908 196.283 15.4685C196.974 15.7463 197.733 16.1522 198.558 16.6864C199.383 17.1993 199.996 17.8727 200.398 18.7059C200.8 19.5178 201 20.4792 201 21.5902C201 23.7913 200.186 25.5113 198.558 26.7504C196.93 27.9896 194.777 28.6095 192.101 28.6095Z" fill="#212121"/>
<path d="M173.636 1.93555C172.9 3.46742 171.612 4.70166 170.013 5.4065C171.612 6.11133 172.9 7.34504 173.636 8.87692C174.371 7.34504 175.659 6.11133 177.258 5.4065C175.659 4.70166 174.371 3.46742 173.636 1.93555Z" fill="#FA990E"/>
<path d="M75.4935 11.0428C75.4882 11.0003 75.4824 10.9583 75.476 10.9162C75.471 10.8848 75.4654 10.8533 75.4601 10.8218C75.4726 10.895 75.4839 10.9687 75.4935 11.0428Z" fill="#FA990E"/>
<path d="M75.4536 10.7838C75.4519 10.7744 75.4504 10.765 75.4487 10.7555C75.4119 10.5592 75.3643 10.3664 75.3067 10.1772C75.367 10.3754 75.4162 10.5778 75.4536 10.7838Z" fill="#FA990E"/>
<path d="M75.7722 13.1447L75.7646 13.0866L75.4951 11.0493L75.7722 13.1447Z" fill="#FA990E"/>
<path d="M98.3143 5.69287H91.021L83.2926 28.1285H89.7834L90.7869 24.8912H94.4374L94.3119 23.8773C93.9982 21.3444 91.9135 19.3473 89.2696 19.0467L87.2218 18.8141C86.978 18.7861 86.978 18.4471 87.2218 18.4191L89.2696 18.1865C91.3474 17.9503 93.0796 16.6661 93.8785 14.8977L94.2745 13.6074C94.2889 13.5242 94.3015 13.4404 94.3119 13.3559L94.5547 11.3941C94.584 11.1605 94.9378 11.1605 94.9671 11.3941L95.2098 13.3559C95.5236 15.8888 97.6083 17.8859 100.252 18.1865L102.3 18.4191C102.544 18.4471 102.544 18.7861 102.3 18.8141L100.252 19.0467C97.6083 19.3473 95.5236 21.3444 95.2098 23.8773L95.0844 24.8912H98.582L99.5856 28.1285H106.042L98.3143 5.69287Z" fill="#212121"/>
<path d="M84.6782 5.71802L82.3383 5.9672C79.3162 6.28959 76.9341 8.42896 76.5753 11.143L76.2979 13.245C76.2648 13.4952 75.86 13.4952 75.827 13.245L75.549 11.143C75.1908 8.42896 72.8081 6.28959 69.7865 5.9672L67.4466 5.71802C67.4121 5.71435 67.3819 5.70551 67.3559 5.69287H67.2304V11.2378H73.0183V28.1285H79.0068V11.2378H84.7942V5.69287H84.769C84.743 5.70551 84.7128 5.71435 84.6782 5.71802Z" fill="#212121"/>
<path d="M79.8483 5.40651C78.1435 4.69528 76.765 3.43482 76.0074 1.85352C75.2498 3.43482 73.8713 4.69528 72.167 5.40651C73.8713 6.1172 75.2498 7.37768 76.0074 8.9595C76.765 7.37768 78.1435 6.1172 79.8483 5.40651Z" fill="#FA990E"/>
<path d="M182.136 5.71802L179.796 5.9672C176.774 6.28959 174.392 8.42896 174.033 11.143L173.756 13.245C173.723 13.4952 173.318 13.4952 173.285 13.245L173.007 11.143C172.649 8.42896 170.266 6.28959 167.245 5.9672L164.905 5.71802C164.87 5.71435 164.84 5.70551 164.814 5.69287H164.688V11.2378H170.476V28.1285H176.465V11.2378H182.252V5.69287H182.227C182.201 5.70551 182.171 5.71435 182.136 5.71802Z" fill="#212121"/>
</g>
<defs>
<radialGradient id="paint0_radial_48_35792" cx="0" cy="0" r="1" gradientTransform="matrix(96.9903 -28.613 16.4619 51.2137 43.9801 -9.84436)" gradientUnits="userSpaceOnUse">
<stop offset="0.00559" stop-color="#F2601B"/>
<stop offset="1" stop-color="#FFC61F"/>
</radialGradient>
<radialGradient id="paint1_radial_48_35792" cx="0" cy="0" r="1" gradientUnits="userSpaceOnUse" gradientTransform="translate(53.7838 16.0029) scale(34.0125 32.5844)">
<stop offset="0.00559" stop-color="#F2611B"/>
<stop offset="1" stop-color="#FEB10A"/>
</radialGradient>
<radialGradient id="paint2_radial_48_35792" cx="0" cy="0" r="1" gradientTransform="matrix(21.8257 -10.1532 5.25214 10.3622 21.5366 19.6257)" gradientUnits="userSpaceOnUse">
<stop offset="0.00559" stop-color="#F2611B"/>
<stop offset="1" stop-color="#FEB10A"/>
</radialGradient>
<radialGradient id="paint3_radial_48_35792" cx="0" cy="0" r="1" gradientTransform="matrix(24.2871 -7.16492 4.12218 12.8243 24.5372 15.5288)" gradientUnits="userSpaceOnUse">
<stop offset="0.00559" stop-color="#F2601B"/>
<stop offset="1" stop-color="#FFC61F"/>
</radialGradient>
<clipPath id="clip0_48_35792">
<rect width="201" height="32" fill="white"/>
</clipPath>
</defs>
</svg>
