<svg width="200" height="200" viewBox="0 0 200 200" fill="none" xmlns="http://www.w3.org/2000/svg">
  <!-- Background wave -->
  <path d="M20 100C20 60 40 40 100 40C160 40 180 60 180 100C180 140 160 160 100 160C40 160 20 140 20 100Z" fill="#6B21A8" opacity="0.1"/>
  <path d="M20 100C20 60 40 40 100 40C160 40 180 60 180 100C180 140 160 160 100 160C40 160 20 140 20 100Z" stroke="#7C3AED" stroke-width="2" opacity="0.3"/>
  <!-- Stars -->
  <circle cx="50" cy="60" r="3" fill="#FCD34D"/>
  <circle cx="150" cy="80" r="2.5" fill="#FCD34D"/>
  <circle cx="80" cy="140" r="2" fill="#FCD34D"/>
  <circle cx="160" cy="130" r="2.5" fill="#FCD34D"/>
  <!-- Dinosaur body -->
  <ellipse cx="100" cy="120" rx="45" ry="35" fill="#22C55E"/>
  <ellipse cx="100" cy="110" rx="35" ry="30" fill="#4ADE80"/>
  <!-- Head -->
  <ellipse cx="100" cy="85" rx="30" ry="25" fill="#22C55E"/>
  <ellipse cx="100" cy="80" rx="25" ry="20" fill="#4ADE80"/>
  <!-- Eye -->
  <circle cx="95" cy="78" r="4" fill="#1F2937"/>
  <circle cx="93" cy="76" r="1.5" fill="white"/>
  <!-- Tears -->
  <ellipse cx="92" cy="88" rx="2" ry="4" fill="#93C5FD" opacity="0.8"/>
  <ellipse cx="98" cy="90" rx="1.5" ry="3" fill="#93C5FD" opacity="0.8"/>
  <!-- Mouth -->
  <path d="M95 92Q100 95 105 92" stroke="#1F2937" stroke-width="2" stroke-linecap="round" fill="none"/>
  <!-- Legs -->
  <ellipse cx="85" cy="145" rx="8" ry="12" fill="#22C55E"/>
  <ellipse cx="115" cy="145" rx="8" ry="12" fill="#22C55E"/>
  <!-- Tail -->
  <ellipse cx="60" cy="125" rx="15" ry="20" fill="#22C55E" opacity="0.8"/>
</svg>

